PathFileType	4	(X/Y/Z)	PS_ngait_og_ss9.trc	
DataRate	CameraRate	NumFrames	NumMarkers	Units	OrigDataRate	OrigDataStartFrame	OrigNumFrames	
120.00	120.00	4	39	mm	120.00	586	130	
Frame#	Time	Sternum			Neck			RShoulder			LShoulder			Xiphoid			Thoracic			RAsis			LAsis			RPsis			LPsis			LThighSuperior			LThighInferior			LThighLateral			LShankSuperior			LShankInferior			LShankLateral			RThighSuperior			RThighInferior			RThighLateral			RShankSuperior			RShankInferior			RShankLateral			RHeel			RToe			RMidfootMedial			RMidfootLateral			RHindfoot			RMidfootSuperior			RToeMedial			RToeLateral			LHeel			LToe			LMidfootMedial			LMidfootLateral			LHindfoot			LMidfootSuperior			LToeMedial			LToeLateral			Sacral			
		X1	Y1	Z1	X2	Y2	Z2	X3	Y3	Z3	X4	Y4	Z4	X5	Y5	Z5	X6	Y6	Z6	X7	Y7	Z7	X8	Y8	Z8	X9	Y9	Z9	X10	Y10	Z10	X11	Y11	Z11	X12	Y12	Z12	X13	Y13	Z13	X14	Y14	Z14	X15	Y15	Z15	X16	Y16	Z16	X17	Y17	Z17	X18	Y18	Z18	X19	Y19	Z19	X20	Y20	Z20	X21	Y21	Z21	X22	Y22	Z22	X23	Y23	Z23	X24	Y24	Z24	X25	Y25	Z25	X26	Y26	Z26	X27	Y27	Z27	X28	Y28	Z28	X29	Y29	Z29	X30	Y30	Z30	X31	Y31	Z31	X32	Y32	Z32	X33	Y33	Z33	X34	Y34	Z34	X35	Y35	Z35	X36	Y36	Z36	X37	Y37	Z37	X38	Y38	Z38	X39	Y39	Z39	

82	0.675	766.40826	1435.77832	180.20227	603.30316	1531.27234	202.72026	659.30579	1506.47717	356.37790	623.53857	1528.80530	57.86614	801.70752	1276.31580	173.10733	522.31744	1312.47681	202.65843	731.79846	1010.05353	304.00046	708.53802	1004.04108	31.50966	535.72748	1031.25342	242.10760	520.02039	1022.78534	139.09627	640.17902	825.50574	-14.82533	652.51550	590.92969	3.50479	737.42621	692.88818	43.98135	554.28375	391.98889	3.44742	408.63321	258.78326	49.20226	515.20734	300.09698	76.84777	703.50977	815.29291	353.99612	772.61230	588.12781	325.05481	816.16791	757.54907	282.58191	775.27661	429.96875	333.86115	793.91290	177.02588	296.32898	837.25500	308.54459	255.08463	712.36133	65.30893	241.81183	1028.09351	55.36177	254.43619	932.73621	34.73067	203.28328	927.72095	31.88118	319.66702	874.41498	31.86760	310.74564	893.49298	95.16405	253.14003	975.75067	38.79246	206.77394	976.16003	39.82008	310.24997	268.54172	221.19533	116.76955	491.27872	29.95115	51.99954	409.39905	58.49796	124.25088	383.89688	58.58722	10.27477	347.60278	90.94121	28.47304	425.53210	120.60969	70.75455	442.18033	38.43853	113.34459	423.80392	45.58377	11.21381	527.87396	1027.01941	190.60194 
83	0.683	774.74792	1437.03406	180.72159	611.95325	1532.62122	204.03873	668.47083	1508.00159	357.15128	631.53424	1530.02869	59.01529	810.05920	1277.56873	173.66180	530.82202	1313.61658	204.15082	740.67523	1011.98694	305.48798	717.24377	1005.01764	33.03387	544.45050	1032.27991	243.77991	528.75751	1023.59705	140.70612	652.12225	826.66907	-14.03308	669.99878	592.11731	2.13244	752.81244	695.56293	43.51062	571.92877	394.72375	2.54633	423.87030	265.79694	48.59091	531.58710	304.30096	75.65415	713.70264	817.32843	356.49768	777.37238	588.22028	325.88071	823.24597	757.11505	283.16519	779.00085	429.56244	334.55765	794.70874	176.73895	296.28220	839.82257	308.05917	255.62405	712.45294	65.11503	241.67073	1028.34082	54.77153	254.31219	932.85883	34.44802	203.21249	927.74884	31.79168	319.76135	874.68109	31.15414	310.25391	893.90814	95.13625	252.98930	975.91370	38.34002	206.69487	976.36035	39.54418	310.16885	286.50464	236.38808	117.80937	493.65475	25.94514	50.65227	416.17398	64.38962	123.36250	389.00931	64.10910	12.77662	355.04642	101.14536	29.08609	435.64545	126.03647	69.31053	446.72241	40.87399	112.46154	427.31818	47.02708	10.45637	536.60400	1027.93848	192.24301 
84	0.692	782.96094	1438.20923	181.12839	620.28375	1533.78613	205.01341	677.53943	1509.51038	357.91562	639.30316	1531.11365	60.14756	818.26416	1278.63745	174.09473	539.36627	1314.64880	205.55147	749.46729	1014.00549	307.18268	725.87476	1005.96228	34.51412	553.10638	1033.30322	245.58879	537.42395	1024.37170	142.27840	663.90131	828.06110	-13.26478	686.84100	593.70618	0.98189	767.54102	698.44141	42.53978	589.54144	397.30829	1.82847	438.79840	272.76846	47.84810	550.47247	309.19116	74.37171	722.95190	819.07025	358.02347	781.80377	588.24158	326.95013	829.86499	755.76111	283.57465	782.47168	429.33200	335.21631	795.73108	176.55789	296.50653	842.05804	307.17761	256.15329	712.33527	65.36010	241.90652	1028.38025	54.35752	254.07106	932.92023	34.35817	203.00952	927.78369	31.68318	319.79230	874.30865	31.58249	310.79193	894.07269	95.13692	252.75557	975.90356	38.09909	206.44897	976.35211	39.27726	309.92325	303.99481	249.78496	119.66689	497.74258	23.04247	50.51685	424.26450	70.21204	122.85455	397.14722	70.52626	14.19697	363.98065	110.79800	30.28952	446.37244	131.06363	69.28911	452.65128	43.52916	112.10396	433.58319	49.59637	10.03027	545.26520	1028.83752	193.93359 
85	0.700	791.18689	1439.34644	181.52184	628.30646	1534.76697	205.86736	686.41998	1510.97217	358.75101	646.84863	1532.11877	61.06629	826.44385	1279.83105	174.53157	547.73547	1315.72327	206.88815	758.11853	1015.57172	308.51337	734.43866	1006.96625	35.74315	561.68060	1034.24011	246.97308	546.12482	1025.29114	143.76067	675.47894	829.64655	-12.51195	703.51862	595.38763	-0.14044	781.86719	701.20477	41.48976	607.04242	399.72949	1.28778	454.03281	279.43448	47.59561	567.94348	314.68130	73.19326	731.59076	820.55286	359.38367	786.08215	588.28564	328.05499	836.33649	754.18610	284.44330	785.58832	429.42221	335.98367	796.66351	176.33295	296.70663	843.91168	306.84409	256.63239	712.42029	65.36160	242.00342	1028.62488	53.87828	254.10318	932.92706	34.28057	202.94077	927.73956	30.70558	318.87070	874.33014	31.70352	310.98224	894.33771	94.73756	253.27821	976.07410	38.00499	206.43289	976.66528	38.40746	309.91238	320.11575	260.17502	121.33659	504.36804	22.09496	49.64947	434.43375	75.60564	122.45123	405.48474	79.71027	12.77740	374.67697	119.48364	30.54374	458.06537	136.39072	69.53048	461.01370	46.22307	111.16481	442.80151	54.07073	9.05618	553.90271	1029.76563	195.36688 
